<svg fill="none" height="32" viewBox="0 0 32 32" width="32" xmlns="http://www.w3.org/2000/svg" xmlns:xlink="http://www.w3.org/1999/xlink"><filter id="a" color-interpolation-filters="sRGB" filterUnits="userSpaceOnUse" height="14.8607" width="22" x="5" y="12.2393"><feFlood flood-opacity="0" result="BackgroundImageFix"/><feBlend in="SourceGraphic" in2="BackgroundImageFix" mode="normal" result="shape"/><feColorMatrix in="SourceAlpha" result="hardAlpha" type="matrix" values="0 0 0 0 0 0 0 0 0 0 0 0 0 0 0 0 0 0 127 0"/><feOffset dy=".1"/><feGaussianBlur stdDeviation=".5"/><feComposite in2="hardAlpha" k2="-1" k3="1" operator="arithmetic"/><feColorMatrix type="matrix" values="0 0 0 0 0.352941 0 0 0 0 0.690196 0 0 0 0 0.501961 0 0 0 1 0"/><feBlend in2="shape" mode="normal" result="effect1_innerShadow_18_4242"/></filter><linearGradient id="b" gradientUnits="userSpaceOnUse" x1="16" x2="16" y1="5" y2="27"><stop offset="0" stop-color="#a6e5f7"/><stop offset=".614765" stop-color="#85d6f5"/></linearGradient><radialGradient id="c" cx="0" cy="0" gradientTransform="matrix(1.87519706 .62499846 -.62499846 1.87519706 22.3125 10.6875)" gradientUnits="userSpaceOnUse" r="1"><stop offset=".209985" stop-color="#d4d5ff"/><stop offset=".754934" stop-color="#dddcff"/></radialGradient><radialGradient id="d" cx="0" cy="0" gradientTransform="matrix(1.95312298 -2.40625048 1.11988884 .90899956 23.7344 12.6094)" gradientUnits="userSpaceOnUse" r="1"><stop offset=".457026" stop-color="#efefff"/><stop offset="1" stop-color="#efefff" stop-opacity="0"/></radialGradient><radialGradient id="e" cx="0" cy="0" gradientTransform="matrix(-1.53124552 -1.93750225 3.99741155 -3.1592317 27 12.3126)" gradientUnits="userSpaceOnUse" r="1"><stop offset=".581265" stop-color="#dedfff"/><stop offset="1" stop-color="#d8d9ff"/></radialGradient><radialGradient id="f" cx="0" cy="0" gradientTransform="matrix(1.21875214 -1.12500237 1.73413872 1.87864962 23.7813 12.8751)" gradientUnits="userSpaceOnUse" r="1"><stop offset=".564164" stop-color="#efefff"/><stop offset=".728168" stop-color="#efefff" stop-opacity="0"/></radialGradient><radialGradient id="g" cx="0" cy="0" gradientTransform="matrix(-5.48438554 2.87277638 -2.87277638 -5.48438554 24.858 12.7781)" gradientUnits="userSpaceOnUse" r="1"><stop offset=".400983" stop-color="#eef"/><stop offset="1" stop-color="#d4d3ff"/></radialGradient><linearGradient id="h" gradientUnits="userSpaceOnUse" x1="3.5" x2="3.5" y1="2" y2="30"><stop offset="0" stop-color="#d38e57"/><stop offset=".272321" stop-color="#efa570"/><stop offset=".79771" stop-color="#efa570"/><stop offset="1" stop-color="#d38e57"/></linearGradient><linearGradient id="i" gradientUnits="userSpaceOnUse" x1="4.0909" x2="3.86744" y1="28.1055" y2="27.8626"><stop offset="0" stop-color="#cb7734"/><stop offset="1" stop-color="#cb7734" stop-opacity="0"/></linearGradient><linearGradient id="j" gradientUnits="userSpaceOnUse" x1="10.5711" x2="31.6343" y1="28.9993" y2="28.9993"><stop offset="0" stop-color="#e69f70"/><stop offset="1" stop-color="#d3895c"/></linearGradient><linearGradient id="k" gradientUnits="userSpaceOnUse" x1="16" x2="16" y1="30.5625" y2="29.1875"><stop offset="0" stop-color="#d47f6e"/><stop offset="1" stop-color="#d47f6e" stop-opacity="0"/></linearGradient><linearGradient id="l" gradientUnits="userSpaceOnUse" x1="27.8684" x2="27.6404" y1="27.7544" y2="27.9825"><stop offset="0" stop-color="#c67331"/><stop offset="1" stop-color="#c67331" stop-opacity="0"/></linearGradient><linearGradient id="m" gradientUnits="userSpaceOnUse" x1="28.5" x2="28.5" y1="2" y2="30"><stop offset="0" stop-color="#ca7c50"/><stop offset="1" stop-color="#e0966b"/></linearGradient><linearGradient id="n" gradientUnits="userSpaceOnUse" x1="28.1563" x2="28.293" y1="3.75" y2="3.89063"><stop offset="0" stop-color="#c2712e"/><stop offset="1" stop-color="#c2712e" stop-opacity="0"/></linearGradient><linearGradient id="o" gradientUnits="userSpaceOnUse" x1="27.3701" x2="3.60596" y1="4.37184" y2="4.37184"><stop offset="0" stop-color="#d99569"/><stop offset="1" stop-color="#d28459"/></linearGradient><linearGradient id="p" gradientUnits="userSpaceOnUse" x1="16" x2="16" y1="5" y2="4.67187"><stop offset="0" stop-color="#cc8159"/><stop offset="1" stop-color="#cc8159" stop-opacity="0"/></linearGradient><linearGradient id="q" gradientUnits="userSpaceOnUse" x1="3.91116" x2="4.45584" y1="4.13497" y2="3.63219"><stop offset="0" stop-color="#c77731"/><stop offset="1" stop-color="#c77731" stop-opacity="0"/></linearGradient><radialGradient id="r" cx="0" cy="0" gradientTransform="matrix(0 -8.72958 21.4715 0 16 24.1035)" gradientUnits="userSpaceOnUse" r="1"><stop offset="0" stop-color="#2dac5b"/><stop offset="1" stop-color="#35bd69"/></radialGradient><radialGradient id="s" cx="0" cy="0" gradientTransform="matrix(5.43750374 6.56249868 -3.99134371 3.30711631 11.5625 16.3125)" gradientUnits="userSpaceOnUse" r="1"><stop offset="0" stop-color="#4dc277"/><stop offset="1" stop-color="#4dc277" stop-opacity="0"/></radialGradient><radialGradient id="t" cx="0" cy="0" gradientTransform="matrix(0 12.6982 -5.0046 0 27 12.2393)" gradientUnits="userSpaceOnUse" r="1"><stop offset="0" stop-color="#3bcc74"/><stop offset="1" stop-color="#3bcc74" stop-opacity="0"/></radialGradient><radialGradient id="u" cx="0" cy="0" gradientTransform="matrix(-1.37502724 3.68748411 -2.41337281 -.89992343 18 18.3125)" gradientUnits="userSpaceOnUse" r="1"><stop offset=".350226" stop-color="#4ca876"/><stop offset="1" stop-color="#4ca876" stop-opacity="0"/></radialGradient><radialGradient id="v" cx="0" cy="0" gradientTransform="matrix(3.37499657 -3.99999589 5.96177926 5.03025131 5 28.125)" gradientUnits="userSpaceOnUse" r="1"><stop offset="0" stop-color="#399e60"/><stop offset="1" stop-color="#399e60" stop-opacity="0"/></radialGradient><radialGradient id="w" cx="0" cy="0" gradientTransform="matrix(0 -4.04422 11.7897 0 16 27)" gradientUnits="userSpaceOnUse" r="1"><stop offset="0" stop-color="#7fd86c"/><stop offset="1" stop-color="#9fd660"/></radialGradient><radialGradient id="x" cx="0" cy="0" gradientTransform="matrix(8.806335 -5.37446054 7.26803477 11.90905553 6.39031 28.2655)" gradientUnits="userSpaceOnUse" r="1"><stop offset="0" stop-color="#79c56c"/><stop offset="1" stop-color="#79c56c" stop-opacity="0"/></radialGradient><radialGradient id="y" cx="0" cy="0" gradientTransform="matrix(-6.475279 -6.73421895 6.77886712 -6.51821039 27.5644 28.395)" gradientUnits="userSpaceOnUse" r="1"><stop offset="0" stop-color="#93eb81"/><stop offset="1" stop-color="#93eb81" stop-opacity="0"/></radialGradient><linearGradient id="z" gradientUnits="userSpaceOnUse" x1="18.4535" x2="15.3289" y1="7.65348" y2="11.6401"><stop offset="0" stop-color="#fc8b23"/><stop offset="1" stop-color="#e67639"/></linearGradient><radialGradient id="A" cx="0" cy="0" gradientTransform="matrix(-.57300537 .51313631 -.45274547 -.50556857 17.2812 6.95535)" gradientUnits="userSpaceOnUse" r="1"><stop offset=".300161" stop-color="#ffa13a"/><stop offset="1" stop-color="#ffa13a" stop-opacity="0"/></radialGradient><radialGradient id="B" cx="0" cy="0" gradientTransform="matrix(.46182378 1.13225772 -.99900572 .40747313 15.2799 6.71253)" gradientUnits="userSpaceOnUse" r="1"><stop offset=".300161" stop-color="#ff942a"/><stop offset="1" stop-color="#ff942a" stop-opacity="0"/></radialGradient><linearGradient id="C"><stop offset=".300161" stop-color="#ffa13d"/><stop offset="1" stop-color="#ffa13d" stop-opacity="0"/></linearGradient><radialGradient id="D" cx="0" cy="0" gradientTransform="matrix(-.47037666 -.1282835 .17762526 -.65129795 18.564 7.85334)" gradientUnits="userSpaceOnUse" r="1" xlink:href="#C"/><radialGradient id="E" cx="0" cy="0" gradientTransform="matrix(-.77825673 .37630779 -.27793086 -.57479957 19.5475 8.56318)" gradientUnits="userSpaceOnUse" r="1" xlink:href="#C"/><radialGradient id="F" cx="0" cy="0" gradientTransform="matrix(-.95785774 -.11118371 .06265584 -.53978577 19.7357 10.0256)" gradientUnits="userSpaceOnUse" r="1" xlink:href="#C"/><linearGradient id="G"><stop offset="0" stop-color="#e0762a"/><stop offset="1" stop-color="#e0762a" stop-opacity="0"/></linearGradient><radialGradient id="H" cx="0" cy="0" gradientTransform="matrix(.6295806 -.60721279 .58497879 .60652757 18.8719 11.146)" gradientUnits="userSpaceOnUse" r="1" xlink:href="#G"/><radialGradient id="I" cx="0" cy="0" gradientTransform="matrix(-.41051229 -.53024132 .51082515 -.39548031 14.8181 10.9407)" gradientUnits="userSpaceOnUse" r="1" xlink:href="#G"/><radialGradient id="J" cx="0" cy="0" gradientTransform="matrix(.61576631 .29077824 -.35144725 .74424199 13.903 8.67436)" gradientUnits="userSpaceOnUse" r="1"><stop offset="0" stop-color="#f0851d"/><stop offset="1" stop-color="#f0851d" stop-opacity="0"/></radialGradient><radialGradient id="K" cx="0" cy="0" gradientTransform="matrix(-.62976448 -.48346234 .45610443 -.5941277 17.9678 12.1172)" gradientUnits="userSpaceOnUse" r="1"><stop offset=".336586" stop-color="#e3745b"/><stop offset="1" stop-color="#e3745b" stop-opacity="0"/></radialGradient><radialGradient id="L" cx="0" cy="0" gradientTransform="matrix(-1.81628121 3.45379177 -4.26509762 -2.24293101 17.9961 8.28454)" gradientUnits="userSpaceOnUse" r="1"><stop offset=".17178" stop-color="#ffcb38"/><stop offset="1" stop-color="#dca21c"/><stop offset="1" stop-color="#e5ae1b"/></radialGradient><radialGradient id="M" cx="0" cy="0" gradientTransform="matrix(-.65625319 -1.40625002 1.40625002 -.65625319 7.67187 12.1094)" gradientUnits="userSpaceOnUse" r="1"><stop offset=".108272" stop-color="#ebeaff"/><stop offset="1" stop-color="#d5d8ff"/></radialGradient><linearGradient id="N" gradientUnits="userSpaceOnUse" x1="7.0625" x2="7.0625" y1="16" y2="15.125"><stop offset="0" stop-color="#cfc9ff"/><stop offset="1" stop-color="#cfc9ff" stop-opacity="0"/></linearGradient><radialGradient id="O" cx="0" cy="0" gradientTransform="matrix(-2.90624942 1.56249942 -1.3117769 -2.43990545 10.5625 13.3125)" gradientUnits="userSpaceOnUse" r="1"><stop offset="0" stop-color="#f2f3ff"/><stop offset="1" stop-color="#f2f3ff" stop-opacity="0"/></radialGradient><radialGradient id="P" cx="0" cy="0" gradientTransform="matrix(-1.4374851 2.31292417 -1.87497504 -1.1652992 6.875 10.6875)" gradientUnits="userSpaceOnUse" r="1"><stop offset=".222069" stop-color="#f4f4ff"/><stop offset="1" stop-color="#f4f4ff" stop-opacity="0"/></radialGradient><path d="m5 5h22v22h-22z" fill="url(#b)"/><circle cx="24.1877" cy="12.1266" fill="url(#c)" r="2.06773"/><circle cx="24.1877" cy="12.1266" fill="url(#d)" r="2.06773"/><path d="m23.267 12.9869c1.0626-2.4471 2.9146-3.65918 3.733-3.83358v5.55418h-2.3143z" fill="url(#e)"/><path d="m23.267 12.9869c1.0626-2.4471 2.9146-3.65918 3.733-3.83358v5.55418h-2.3143z" fill="url(#f)"/><circle cx="22.3067" cy="14.7334" fill="url(#g)" r="3.24443"/><path d="m5 5-3-3v28l3-3z" fill="url(#h)"/><path d="m5 5-3-3v28l3-3z" fill="url(#i)"/><path d="m5 27-3 3h28l-3-3z" fill="url(#j)"/><path d="m5 27-3 3h28l-3-3z" fill="url(#k)"/><path d="m5 27-3 3h28l-3-3z" fill="url(#l)"/><path d="m27 27 3 3v-28l-3 3z" fill="url(#m)"/><path d="m27 27 3 3v-28l-3 3z" fill="url(#n)"/><path d="m27 5h-22l-3-3h28z" fill="url(#o)"/><path d="m27 5h-22l-3-3h28z" fill="url(#p)"/><path d="m27 5h-22l-3-3h28z" fill="url(#q)"/><g filter="url(#a)"><path d="m7.51073 17.808-2.51073 1.4407v7.7513h22v-14.7607c-1.5 0-2.5.492-4 1.9681l-4.5 4.4282c-1 .9841-1.9276 1.3642-2.9276.8721-.3333-.164-1.5379-.9281-3.0434-1.7807-1.5516-.8787-3.90129-.6151-5.01827.081z" fill="url(#r)"/><path d="m7.51073 17.808-2.51073 1.4407v7.7513h22v-14.7607c-1.5 0-2.5.492-4 1.9681l-4.5 4.4282c-1 .9841-1.9276 1.3642-2.9276.8721-.3333-.164-1.5379-.9281-3.0434-1.7807-1.5516-.8787-3.90129-.6151-5.01827.081z" fill="url(#s)"/><path d="m7.51073 17.808-2.51073 1.4407v7.7513h22v-14.7607c-1.5 0-2.5.492-4 1.9681l-4.5 4.4282c-1 .9841-1.9276 1.3642-2.9276.8721-.3333-.164-1.5379-.9281-3.0434-1.7807-1.5516-.8787-3.90129-.6151-5.01827.081z" fill="url(#t)"/><path d="m7.51073 17.808-2.51073 1.4407v7.7513h22v-14.7607c-1.5 0-2.5.492-4 1.9681l-4.5 4.4282c-1 .9841-1.9276 1.3642-2.9276.8721-.3333-.164-1.5379-.9281-3.0434-1.7807-1.5516-.8787-3.90129-.6151-5.01827.081z" fill="url(#u)"/><path d="m7.51073 17.808-2.51073 1.4407v7.7513h22v-14.7607c-1.5 0-2.5.492-4 1.9681l-4.5 4.4282c-1 .9841-1.9276 1.3642-2.9276.8721-.3333-.164-1.5379-.9281-3.0434-1.7807-1.5516-.8787-3.90129-.6151-5.01827.081z" fill="url(#v)"/></g><path d="m27 26.8115v.1885h-21.99997v-.1886c2.56366-2.5794 6.53807-4.3114 10.99997-4.3114s8.4364 1.732 11 4.3115z" fill="url(#w)"/><path d="m27 26.8115v.1885h-21.99997v-.1886c2.56366-2.5794 6.53807-4.3114 10.99997-4.3114s8.4364 1.732 11 4.3115z" fill="url(#x)"/><path d="m27 26.8115v.1885h-21.99997v-.1886c2.56366-2.5794 6.53807-4.3114 10.99997-4.3114s8.4364 1.732 11 4.3115z" fill="url(#y)"/><path d="m16.2495 6.9337c.3117-.35087.7355-.29502 1.0066 0l.1654.19147c.0573.0623.1401.0946.2245.08751l.294-.08751c.4007-.08591.7649.21307.7649.67744v.17494c.0085.09549.0919.16023.1781.2023l.2656.11099c.3843.18766.4803.63295.2004 1.00668l-.0795.10496c-.0713.09642-.0567.22298.0143.31965l.0795.11132c.2895.35625.1263.84495-.2826 1.01575l-.2287.0955c-.0861.036-.1198.0977-.1359.1896l-.0159.299c-.0557.4103-.4201.5956-.7125.5542l-.3483-.093c-.0836-.0118-.1876.0159-.2433.1034l-.1256.1717c-.3117.3515-.7325.2931-.9447.0875l-.2318-.2807c-.0606-.0588-.1372-.1089-.2287-.0744l-.3506.0959c-.2894.041-.6301-.1815-.6847-.4687l-.0404-.4155c-.0165-.0865-.0735-.1598-.1533-.197l-.2459-.0845c-.3698-.1723-.4936-.5895-.2813-.93786l.1386-.19167c.0556-.09133.053-.20673-.0068-.29542l-.1034-.14631c-.2926-.41667-.0903-.88238.3433-1.022l.0957-.03079c.1055-.03399.2075-.12165.2162-.23219l.0213-.26835c.0346-.43557.4321-.6855.8501-.55841l.1353.04113c.1304.05089.2326.00755.3038-.06998z" fill="url(#z)"/><path d="m16.2495 6.9337c.3117-.35087.7355-.29502 1.0066 0l.1654.19147c.0573.0623.1401.0946.2245.08751l.294-.08751c.4007-.08591.7649.21307.7649.67744v.17494c.0085.09549.0919.16023.1781.2023l.2656.11099c.3843.18766.4803.63295.2004 1.00668l-.0795.10496c-.0713.09642-.0567.22298.0143.31965l.0795.11132c.2895.35625.1263.84495-.2826 1.01575l-.2287.0955c-.0861.036-.1198.0977-.1359.1896l-.0159.299c-.0557.4103-.4201.5956-.7125.5542l-.3483-.093c-.0836-.0118-.1876.0159-.2433.1034l-.1256.1717c-.3117.3515-.7325.2931-.9447.0875l-.2318-.2807c-.0606-.0588-.1372-.1089-.2287-.0744l-.3506.0959c-.2894.041-.6301-.1815-.6847-.4687l-.0404-.4155c-.0165-.0865-.0735-.1598-.1533-.197l-.2459-.0845c-.3698-.1723-.4936-.5895-.2813-.93786l.1386-.19167c.0556-.09133.053-.20673-.0068-.29542l-.1034-.14631c-.2926-.41667-.0903-.88238.3433-1.022l.0957-.03079c.1055-.03399.2075-.12165.2162-.23219l.0213-.26835c.0346-.43557.4321-.6855.8501-.55841l.1353.04113c.1304.05089.2326.00755.3038-.06998z" fill="url(#A)"/><path d="m16.2495 6.9337c.3117-.35087.7355-.29502 1.0066 0l.1654.19147c.0573.0623.1401.0946.2245.08751l.294-.08751c.4007-.08591.7649.21307.7649.67744v.17494c.0085.09549.0919.16023.1781.2023l.2656.11099c.3843.18766.4803.63295.2004 1.00668l-.0795.10496c-.0713.09642-.0567.22298.0143.31965l.0795.11132c.2895.35625.1263.84495-.2826 1.01575l-.2287.0955c-.0861.036-.1198.0977-.1359.1896l-.0159.299c-.0557.4103-.4201.5956-.7125.5542l-.3483-.093c-.0836-.0118-.1876.0159-.2433.1034l-.1256.1717c-.3117.3515-.7325.2931-.9447.0875l-.2318-.2807c-.0606-.0588-.1372-.1089-.2287-.0744l-.3506.0959c-.2894.041-.6301-.1815-.6847-.4687l-.0404-.4155c-.0165-.0865-.0735-.1598-.1533-.197l-.2459-.0845c-.3698-.1723-.4936-.5895-.2813-.93786l.1386-.19167c.0556-.09133.053-.20673-.0068-.29542l-.1034-.14631c-.2926-.41667-.0903-.88238.3433-1.022l.0957-.03079c.1055-.03399.2075-.12165.2162-.23219l.0213-.26835c.0346-.43557.4321-.6855.8501-.55841l.1353.04113c.1304.05089.2326.00755.3038-.06998z" fill="url(#B)"/><path d="m16.2495 6.9337c.3117-.35087.7355-.29502 1.0066 0l.1654.19147c.0573.0623.1401.0946.2245.08751l.294-.08751c.4007-.08591.7649.21307.7649.67744v.17494c.0085.09549.0919.16023.1781.2023l.2656.11099c.3843.18766.4803.63295.2004 1.00668l-.0795.10496c-.0713.09642-.0567.22298.0143.31965l.0795.11132c.2895.35625.1263.84495-.2826 1.01575l-.2287.0955c-.0861.036-.1198.0977-.1359.1896l-.0159.299c-.0557.4103-.4201.5956-.7125.5542l-.3483-.093c-.0836-.0118-.1876.0159-.2433.1034l-.1256.1717c-.3117.3515-.7325.2931-.9447.0875l-.2318-.2807c-.0606-.0588-.1372-.1089-.2287-.0744l-.3506.0959c-.2894.041-.6301-.1815-.6847-.4687l-.0404-.4155c-.0165-.0865-.0735-.1598-.1533-.197l-.2459-.0845c-.3698-.1723-.4936-.5895-.2813-.93786l.1386-.19167c.0556-.09133.053-.20673-.0068-.29542l-.1034-.14631c-.2926-.41667-.0903-.88238.3433-1.022l.0957-.03079c.1055-.03399.2075-.12165.2162-.23219l.0213-.26835c.0346-.43557.4321-.6855.8501-.55841l.1353.04113c.1304.05089.2326.00755.3038-.06998z" fill="url(#D)"/><path d="m16.2495 6.9337c.3117-.35087.7355-.29502 1.0066 0l.1654.19147c.0573.0623.1401.0946.2245.08751l.294-.08751c.4007-.08591.7649.21307.7649.67744v.17494c.0085.09549.0919.16023.1781.2023l.2656.11099c.3843.18766.4803.63295.2004 1.00668l-.0795.10496c-.0713.09642-.0567.22298.0143.31965l.0795.11132c.2895.35625.1263.84495-.2826 1.01575l-.2287.0955c-.0861.036-.1198.0977-.1359.1896l-.0159.299c-.0557.4103-.4201.5956-.7125.5542l-.3483-.093c-.0836-.0118-.1876.0159-.2433.1034l-.1256.1717c-.3117.3515-.7325.2931-.9447.0875l-.2318-.2807c-.0606-.0588-.1372-.1089-.2287-.0744l-.3506.0959c-.2894.041-.6301-.1815-.6847-.4687l-.0404-.4155c-.0165-.0865-.0735-.1598-.1533-.197l-.2459-.0845c-.3698-.1723-.4936-.5895-.2813-.93786l.1386-.19167c.0556-.09133.053-.20673-.0068-.29542l-.1034-.14631c-.2926-.41667-.0903-.88238.3433-1.022l.0957-.03079c.1055-.03399.2075-.12165.2162-.23219l.0213-.26835c.0346-.43557.4321-.6855.8501-.55841l.1353.04113c.1304.05089.2326.00755.3038-.06998z" fill="url(#E)"/><path d="m16.2495 6.9337c.3117-.35087.7355-.29502 1.0066 0l.1654.19147c.0573.0623.1401.0946.2245.08751l.294-.08751c.4007-.08591.7649.21307.7649.67744v.17494c.0085.09549.0919.16023.1781.2023l.2656.11099c.3843.18766.4803.63295.2004 1.00668l-.0795.10496c-.0713.09642-.0567.22298.0143.31965l.0795.11132c.2895.35625.1263.84495-.2826 1.01575l-.2287.0955c-.0861.036-.1198.0977-.1359.1896l-.0159.299c-.0557.4103-.4201.5956-.7125.5542l-.3483-.093c-.0836-.0118-.1876.0159-.2433.1034l-.1256.1717c-.3117.3515-.7325.2931-.9447.0875l-.2318-.2807c-.0606-.0588-.1372-.1089-.2287-.0744l-.3506.0959c-.2894.041-.6301-.1815-.6847-.4687l-.0404-.4155c-.0165-.0865-.0735-.1598-.1533-.197l-.2459-.0845c-.3698-.1723-.4936-.5895-.2813-.93786l.1386-.19167c.0556-.09133.053-.20673-.0068-.29542l-.1034-.14631c-.2926-.41667-.0903-.88238.3433-1.022l.0957-.03079c.1055-.03399.2075-.12165.2162-.23219l.0213-.26835c.0346-.43557.4321-.6855.8501-.55841l.1353.04113c.1304.05089.2326.00755.3038-.06998z" fill="url(#F)"/><path d="m16.2495 6.9337c.3117-.35087.7355-.29502 1.0066 0l.1654.19147c.0573.0623.1401.0946.2245.08751l.294-.08751c.4007-.08591.7649.21307.7649.67744v.17494c.0085.09549.0919.16023.1781.2023l.2656.11099c.3843.18766.4803.63295.2004 1.00668l-.0795.10496c-.0713.09642-.0567.22298.0143.31965l.0795.11132c.2895.35625.1263.84495-.2826 1.01575l-.2287.0955c-.0861.036-.1198.0977-.1359.1896l-.0159.299c-.0557.4103-.4201.5956-.7125.5542l-.3483-.093c-.0836-.0118-.1876.0159-.2433.1034l-.1256.1717c-.3117.3515-.7325.2931-.9447.0875l-.2318-.2807c-.0606-.0588-.1372-.1089-.2287-.0744l-.3506.0959c-.2894.041-.6301-.1815-.6847-.4687l-.0404-.4155c-.0165-.0865-.0735-.1598-.1533-.197l-.2459-.0845c-.3698-.1723-.4936-.5895-.2813-.93786l.1386-.19167c.0556-.09133.053-.20673-.0068-.29542l-.1034-.14631c-.2926-.41667-.0903-.88238.3433-1.022l.0957-.03079c.1055-.03399.2075-.12165.2162-.23219l.0213-.26835c.0346-.43557.4321-.6855.8501-.55841l.1353.04113c.1304.05089.2326.00755.3038-.06998z" fill="url(#H)"/><path d="m16.2495 6.9337c.3117-.35087.7355-.29502 1.0066 0l.1654.19147c.0573.0623.1401.0946.2245.08751l.294-.08751c.4007-.08591.7649.21307.7649.67744v.17494c.0085.09549.0919.16023.1781.2023l.2656.11099c.3843.18766.4803.63295.2004 1.00668l-.0795.10496c-.0713.09642-.0567.22298.0143.31965l.0795.11132c.2895.35625.1263.84495-.2826 1.01575l-.2287.0955c-.0861.036-.1198.0977-.1359.1896l-.0159.299c-.0557.4103-.4201.5956-.7125.5542l-.3483-.093c-.0836-.0118-.1876.0159-.2433.1034l-.1256.1717c-.3117.3515-.7325.2931-.9447.0875l-.2318-.2807c-.0606-.0588-.1372-.1089-.2287-.0744l-.3506.0959c-.2894.041-.6301-.1815-.6847-.4687l-.0404-.4155c-.0165-.0865-.0735-.1598-.1533-.197l-.2459-.0845c-.3698-.1723-.4936-.5895-.2813-.93786l.1386-.19167c.0556-.09133.053-.20673-.0068-.29542l-.1034-.14631c-.2926-.41667-.0903-.88238.3433-1.022l.0957-.03079c.1055-.03399.2075-.12165.2162-.23219l.0213-.26835c.0346-.43557.4321-.6855.8501-.55841l.1353.04113c.1304.05089.2326.00755.3038-.06998z" fill="url(#I)"/><path d="m16.2495 6.9337c.3117-.35087.7355-.29502 1.0066 0l.1654.19147c.0573.0623.1401.0946.2245.08751l.294-.08751c.4007-.08591.7649.21307.7649.67744v.17494c.0085.09549.0919.16023.1781.2023l.2656.11099c.3843.18766.4803.63295.2004 1.00668l-.0795.10496c-.0713.09642-.0567.22298.0143.31965l.0795.11132c.2895.35625.1263.84495-.2826 1.01575l-.2287.0955c-.0861.036-.1198.0977-.1359.1896l-.0159.299c-.0557.4103-.4201.5956-.7125.5542l-.3483-.093c-.0836-.0118-.1876.0159-.2433.1034l-.1256.1717c-.3117.3515-.7325.2931-.9447.0875l-.2318-.2807c-.0606-.0588-.1372-.1089-.2287-.0744l-.3506.0959c-.2894.041-.6301-.1815-.6847-.4687l-.0404-.4155c-.0165-.0865-.0735-.1598-.1533-.197l-.2459-.0845c-.3698-.1723-.4936-.5895-.2813-.93786l.1386-.19167c.0556-.09133.053-.20673-.0068-.29542l-.1034-.14631c-.2926-.41667-.0903-.88238.3433-1.022l.0957-.03079c.1055-.03399.2075-.12165.2162-.23219l.0213-.26835c.0346-.43557.4321-.6855.8501-.55841l.1353.04113c.1304.05089.2326.00755.3038-.06998z" fill="url(#J)"/><path d="m16.2495 6.9337c.3117-.35087.7355-.29502 1.0066 0l.1654.19147c.0573.0623.1401.0946.2245.08751l.294-.08751c.4007-.08591.7649.21307.7649.67744v.17494c.0085.09549.0919.16023.1781.2023l.2656.11099c.3843.18766.4803.63295.2004 1.00668l-.0795.10496c-.0713.09642-.0567.22298.0143.31965l.0795.11132c.2895.35625.1263.84495-.2826 1.01575l-.2287.0955c-.0861.036-.1198.0977-.1359.1896l-.0159.299c-.0557.4103-.4201.5956-.7125.5542l-.3483-.093c-.0836-.0118-.1876.0159-.2433.1034l-.1256.1717c-.3117.3515-.7325.2931-.9447.0875l-.2318-.2807c-.0606-.0588-.1372-.1089-.2287-.0744l-.3506.0959c-.2894.041-.6301-.1815-.6847-.4687l-.0404-.4155c-.0165-.0865-.0735-.1598-.1533-.197l-.2459-.0845c-.3698-.1723-.4936-.5895-.2813-.93786l.1386-.19167c.0556-.09133.053-.20673-.0068-.29542l-.1034-.14631c-.2926-.41667-.0903-.88238.3433-1.022l.0957-.03079c.1055-.03399.2075-.12165.2162-.23219l.0213-.26835c.0346-.43557.4321-.6855.8501-.55841l.1353.04113c.1304.05089.2326.00755.3038-.06998z" fill="url(#K)"/><path d="m16.7551 11.7383c1.2077 0 2.1868-.9791 2.1868-2.18683 0-1.20776-.9791-2.18685-2.1868-2.18685-1.2078 0-2.1869.97909-2.1869 2.18685 0 1.20773.9791 2.18683 2.1869 2.18683z" fill="url(#L)"/><circle cx="7.50003" cy="12.3281" fill="url(#M)" r="1.51562"/><path d="m5.00003 16v-5.9991c1.13864.1654 2.07479.9557 2.44928 2.0119.02324.0655.10372.0918.16192.0538.3363-.22.73822-.3478 1.17005-.3478 1.18222 0 2.14062.9584 2.14062 2.1406s-.9584 2.1406-2.14062 2.1406z" fill="#dfdeff"/><path d="m5.00003 16v-5.9991c1.13864.1654 2.07479.9557 2.44928 2.0119.02324.0655.10372.0918.16192.0538.3363-.22.73822-.3478 1.17005-.3478 1.18222 0 2.14062.9584 2.14062 2.1406s-.9584 2.1406-2.14062 2.1406z" fill="url(#N)"/><path d="m5.00003 16v-5.9991c1.13864.1654 2.07479.9557 2.44928 2.0119.02324.0655.10372.0918.16192.0538.3363-.22.73822-.3478 1.17005-.3478 1.18222 0 2.14062.9584 2.14062 2.1406s-.9584 2.1406-2.14062 2.1406z" fill="url(#O)"/><path d="m5.00003 16v-5.9991c1.13864.1654 2.07479.9557 2.44928 2.0119.02324.0655.10372.0918.16192.0538.3363-.22.73822-.3478 1.17005-.3478 1.18222 0 2.14062.9584 2.14062 2.1406s-.9584 2.1406-2.14062 2.1406z" fill="url(#P)"/></svg>